<?xml version="1.0" encoding="utf-8"?>
<!-- Generator: Adobe Illustrator 24.0.0, SVG Export Plug-In . SVG Version: 6.00 Build 0)  -->
<svg version="1.1" id="Layer_1" xmlns="http://www.w3.org/2000/svg" xmlns:xlink="http://www.w3.org/1999/xlink" x="0px" y="0px"
	 viewBox="0 0 177.2 100.5" style="enable-background:new 0 0 177.2 100.5;" xml:space="preserve">
<style type="text/css">
	.st0{fill:#30373F;}
</style>
<g>
	<path class="st0" d="M88.6,17.4c18.2-0.1,33.3,15,32.9,33.6c-0.4,17.9-15.2,32.6-33.7,32.2C70,82.7,55.3,67.9,55.7,49.4
		C56.2,31.7,70.8,17.3,88.6,17.4z M58.3,50.3C58.3,67,71.8,80.6,88.6,80.6c16.9,0,30.3-13.6,30.3-30.3c0-16.7-13.5-30.3-30.3-30.3
		C71.8,19.9,58.3,33.5,58.3,50.3L58.3,50.3z"/>
	<path class="st0" d="M74.5,44c0.1,1.7-0.1,3.5,1.7,4.7c0-1.4-0.1-2.6-0.1-3.9c0-1.3,0.4-2.5,1.1-3.7c0.1,2.2-0.4,4.5,1.8,5.8
		c0.1-1.8,0.1-3.5,0.3-5.2c0.2-1.7,0.9-3.3,2.2-4.9c-1,4-1,7.8,1.4,11c-1.7,0.8-3.3,1.6-4.9,2.5c-2.5,1.5-4.4,3.6-5.4,6.4
		c-1.8,5.3,1.1,10,6.8,10.8c2.5,0.4,4.9,0.1,7.3-0.5c0.1,0,0.2-0.1,0.4-0.1c-1.4-0.9-2.1-2.1-1.9-3.6c0.1-0.7,0.3-1.5,0.6-2.2
		c0.7-1.4,1.4-2.8,1.5-4.5c0.7,1.5,0.9,3.1,0.4,4.7c-0.1,0.4-0.3,0.7-0.4,1.1c-0.1,0.6,0,1.2,0.6,1.6c0.5,0.4,1.1,0.4,1.6,0
		c0.6-0.4,0.7-0.9,0.6-1.6c-0.2-1-0.5-1.9-0.6-2.9c-0.2-2,0.2-3.9,0.6-5.8c0,1.8,0.2,3.5,0.7,5.2c0.3,0.9,0.7,1.8,1,2.7
		c0.8,2.2,0.4,3.7-1.6,5.2c0.9,0.2,1.7,0.4,2.5,0.5c2.1,0.3,4.1,0.4,6.1-0.1c5.4-1.4,7.8-6.2,5.6-11.4c-1.2-2.8-3.4-4.8-6.1-6.2
		c-1.3-0.7-2.6-1.2-4-1.9c2.5-3.3,2.5-7,1.6-10.9c2.3,2.9,2.5,6.3,2.1,9.8c0.8-0.1,1.2-0.6,1.4-1.3c0.6-1.3,0.6-2.7,0.5-4.1
		c0-0.1,0-0.3,0-0.4c1.1,0.9,1.4,3,1.1,7.5c1-0.3,1.4-1.1,1.6-2c0.2-0.8,0.2-1.7,0.3-2.6c0.6,0.6,0.8,1.4,0.8,2.2
		c0,1.4-0.1,2.7-0.2,4.1c0,0.4,0,0.8,0.3,1.1c2.1,2.5,3.2,5.4,3.3,8.7c0,4.6-2.1,7.8-6.3,9.7c-2.6,1.2-5.3,1.7-8.1,1.9
		C88.4,72.1,84.2,72,80,71c-2.4-0.6-4.6-1.5-6.4-3.1c-2-1.8-3-4.1-3.2-6.7c-0.3-3.7,0.9-6.9,3.2-9.7c0.3-0.4,0.4-0.7,0.3-1.2
		c-0.3-1.6-0.4-3.2-0.1-4.8c0.1-0.5,0.4-1,0.6-1.5C74.4,44,74.5,44,74.5,44L74.5,44z"/>
	<path class="st0" d="M84.1,60.4c-0.8,1.7-1.4,3.3-0.4,5.2c-1.2,0-2.3,0.1-3.4,0.1c-1.7-0.1-3.3-0.5-4.6-1.7
		c-1.9-1.7-2.2-4.9-0.9-7.4c1.3-2.4,3.4-4,5.7-5.2c1.9-1,3.8-1.6,5.9-1.9c0.1,0,0.2-0.1,0.4-0.1c0-0.1,0-0.1,0-0.1
		c-2.9-1.5-3.8-4.1-4.1-7c-0.4-5,0.9-9.6,3-14c0.6-1.4,1.5-2.6,2.3-3.9c0.1-0.1,0.2-0.3,0.4-0.4c0,0,0.1,0,0.2,0
		c-0.1,0.2-0.1,0.5-0.2,0.7c-1.2,3.9-2.2,7.8-2.8,11.8c-0.3,2.3-0.4,4.6,0.3,6.9c0.4,1.2,1.1,2.3,2,3.2c0.5,0.5,0.8,0.5,1.3,0
		c1.7-1.6,2.4-3.6,2.5-5.9c0.2-2.8-0.7-5.4-1.8-8c-0.4-1-0.9-2-1.4-3.2c0.4,0.2,0.7,0.3,0.9,0.5c1.2,0.7,2.1,1.8,2.8,3
		c1.7,3,2.5,6.2,2.2,9.6c-0.2,2.9-1.3,5.4-4.3,6.8c0.7,0.1,1.2,0.2,1.7,0.3c4,0.9,7.4,2.7,9.9,5.9c1.4,1.7,1.8,3.7,1.2,5.9
		c-0.6,2.2-2.1,3.4-4.2,3.9c-1.6,0.4-3.2,0.4-4.9,0.1c-0.1,0-0.2-0.1-0.3-0.1c0.9-1.8,0.4-3.4-0.5-5.1c1.1,0,2.1,0,3.1,0
		c0.5,0,1-0.2,1.5-0.4c1.3-0.5,1.8-1.5,1.4-2.9c-0.4-1.2-1.2-2.2-2.1-3c-4.9-4.3-12.1-4.2-17,0c-0.9,0.8-1.7,1.8-2.1,3
		c-0.4,1.4,0,2.5,1.4,2.9c1.2,0.3,2.4,0.3,3.7,0.4C83.4,60.5,83.7,60.4,84.1,60.4L84.1,60.4z"/>
</g>
</svg>
