<?xml version="1.0" encoding="utf-8"?>
<!-- Generator: Adobe Illustrator 24.0.0, SVG Export Plug-In . SVG Version: 6.00 Build 0)  -->
<svg version="1.1" id="Layer_1" xmlns="http://www.w3.org/2000/svg" xmlns:xlink="http://www.w3.org/1999/xlink" x="0px" y="0px"
	 viewBox="0 0 177.2 100.5" style="enable-background:new 0 0 177.2 100.5;" xml:space="preserve">
<style type="text/css">
	.st0{fill-rule:evenodd;clip-rule:evenodd;fill:#30373F;}
</style>
<g>
	<g>
		<path class="st0" d="M58,41.6c1.1-4.2,3.3-8.1,6.2-11.3c3.1-3.3,7.1-5.8,11.5-7.2c6.7-2.1,14.1-1.3,20.2,2.1
			c0.8,0.4,1.6,0.9,2.3,1.4c-0.3,1.1-0.2,2.4,0.3,3.5c0.5,1,1.4,1.8,2.4,2.3c1.1,0.5,2.3,0.5,3.4,0.1c2,2.7,3.5,5.8,4.4,9h2.6
			c-0.9-3.7-2.5-7.2-4.7-10.3c0.6-0.7,1-1.6,1.1-2.5c0.1-0.6,0.1-1.1,0-1.7c-0.2-1.3-1-2.5-2.1-3.2c-1.1-0.7-2.4-1-3.6-0.8
			c-0.9,0.2-1.8,0.6-2.5,1.3c-0.7-0.5-1.5-1-2.3-1.4c-6.7-3.7-14.9-4.5-22.2-2.3c-4.8,1.5-9.2,4.2-12.6,7.9c-3.4,3.6-5.9,8.2-7,13
			H58z M101.1,26.4c0.4-0.4,0.9-0.6,1.4-0.7c0.6-0.1,1.2,0.1,1.7,0.4c0.5,0.3,0.9,0.9,1,1.5c0,0.3,0,0.6,0,0.9
			c-0.2,0.9-0.9,1.7-1.9,1.9c-0.2,0-0.4,0-0.6,0c-0.9,0.1-1.7-0.5-2.1-1.2C100.3,28.3,100.4,27.1,101.1,26.4z"/>
		<path class="st0" d="M106.6,60.5c-0.2,0.4-0.4,0.7-0.6,1.1c-2.2,3.7-5.3,6.8-9,9.1c-4.3,2.6-9.3,4-14.3,3.8
			c-3.1-0.1-6.3-0.7-9.2-1.9c-4.6-1.8-8.6-5-11.5-9c-0.7-1-1.4-2-1.9-3.1h-2.9c0.8,1.6,1.7,3.2,2.7,4.6c3.2,4.4,7.6,7.8,12.6,9.8
			c3.2,1.3,6.6,2,10.1,2.1c5.5,0.1,11-1.3,15.7-4.2c4-2.5,7.4-5.9,9.8-10c0.5-0.8,0.9-1.6,1.3-2.4H106.6z"/>
	</g>
	<g>
		<path class="st0" d="M28.5,49.2L28.5,49.2C28,51.7,29,54.4,30.9,56c3,2.7,8.4,2.1,10.5-1.4c-0.6-0.7-1.2-1.3-1.9-1.9
			c-0.8,1-1.8,2.1-3.2,2.2c-2.6,0.5-5.3-1.9-5.1-4.5c0-2.3,2.2-4.3,4.5-4.2c1.6,0,2.9,1,3.7,2.3c0.7-0.6,1.4-1.3,2-2
			c-1.3-2-3.7-3.2-6.1-3.1C32.1,43.4,29,46,28.5,49.2z"/>
		<path class="st0" d="M55.8,49.7L55.8,49.7c0,2.6,0,5.3,0,7.9c1,0.1,1.9,0.1,2.9,0c0-2.6,0-5.3,0-7.9c0.1-1.9,1.8-3.4,3.7-3.4
			c1.9-0.1,3.8,1.7,3.7,3.7c0,2.5,0,5.1,0,7.6c1,0.1,1.9,0.1,2.9,0.1c0-2.8,0.1-5.7-0.1-8.5c-0.3-3.5-4-6.1-7.4-5.5
			C58.5,44,55.7,46.6,55.8,49.7z"/>
		<path class="st0" d="M52.8,52.5c-0.6,0.8-1.3,1.6-2.3,2c-0.9,0.4-1.8,0.4-2.7,0.2c-0.5-0.1-1-0.3-1.4-0.6c0.5-0.4,1-0.8,1.4-1.2
			c1.7-1.3,3.4-2.5,5-3.7c0.8-0.6,1.8-1.1,2.3-1.9c-1-2.4-3.7-4-6.3-4c-0.3,0-0.7,0-1,0.1c-2.4,0.3-4.6,2-5.6,4.2
			c-1,2.3-0.7,5,0.8,7c1.1,1.6,2.9,2.7,4.8,2.9c1.1,0.2,2.2,0.1,3.2-0.3c1.5-0.5,2.8-1.5,3.8-2.8C54.2,53.8,53.5,53.2,52.8,52.5z
			 M46,47.2c0.5-0.5,1.2-0.8,1.8-0.9c1.1-0.2,2.4,0,3.4,0.5c-1.1,1-2.2,1.8-3.4,2.6c-0.3,0.2-0.6,0.5-1,0.7
			c-0.8,0.5-1.4,1.2-2.3,1.6C44.2,50.1,44.7,48.3,46,47.2z"/>
		<path class="st0" d="M82.6,54.6L82.6,54.6c-0.6-0.7-1.2-1.3-1.9-1.9c-0.8,0.8-1.6,1.8-2.7,2.1c-2.6,0.8-5.6-1.4-5.6-4.1
			c-0.2-2.5,2.2-4.8,4.7-4.5c1.5,0,2.7,1.1,3.6,2.3c0.6-0.6,1.4-1.2,1.8-2c-1.1-2.1-3.7-3.2-6-3.1c-3,0-5.8,2.2-6.7,5.1
			c-0.6,2.2-0.2,4.8,1.3,6.6c1.5,1.9,4.1,2.9,6.5,2.6C79.6,57.4,81.5,56.3,82.6,54.6L82.6,54.6z"/>
		<path class="st0" d="M82.6,50L82.6,50v1.4c0-0.3,0-0.5,0-0.8C82.5,50.5,82.5,50.2,82.6,50z"/>
		<polygon class="st0" points="82.6,54.6 82.6,54.6 82.6,54.6 82.6,54.6 		"/>
		<path class="st0" d="M98.9,44.9L98.9,44.9c1.2-1,2.8-0.9,4.3-0.8c1.9,0,3.9,0,5.8,0c0,0.9,0,1.9,0,2.8c-2.5,0.1-5,0-7.6,0
			c-0.9,0-1.6,1-1.1,1.8c0.6,0.9,1.9,0.7,2.9,0.7c1.9,0.1,3.9-0.4,5.5,0.8c2.2,1.4,2.3,5,0.2,6.5c-0.9,0.8-2.2,1-3.4,1
			c-2.4,0-4.8,0-7.2,0c0-0.9,0-1.9,0-2.8c2.7-0.1,5.4,0.1,8-0.1c1.2,0,1.6-2,0.3-2.3c-2.5-0.5-5.4,0.5-7.7-0.9
			C96.8,50.1,96.7,46.4,98.9,44.9z"/>
		<path class="st0" d="M96.1,47.5c-1.2-2.4-3.8-3.9-6.4-3.9c-0.6,0-1.2,0.1-1.7,0.2c-2.9,0.7-5.2,3.3-5.4,6.2v1.4
			c0.1,1.8,1,3.5,2.3,4.6c1.3,1.2,3.1,1.9,4.8,1.9c1.8,0,3.7-0.7,5-2C96.9,53.9,97.5,50.3,96.1,47.5z M90,55.1c-0.1,0-0.2,0-0.3,0
			c-2.2,0-4.4-1.9-4.4-4.2c-0.2-2,1.3-3.9,3.3-4.4c0.4-0.1,0.7-0.2,1.1-0.2c2.1,0,4.2,1.8,4.4,4C94.4,52.7,92.3,55.1,90,55.1z"/>
		<path class="st0" d="M110.9,44.1L110.9,44.1c0,2.5-0.1,5,0,7.5c0.1,2.8,2.2,5.3,4.9,5.9c2.3,0.6,4.8-0.1,6.4-1.8
			c1.2-1.2,1.8-2.8,1.8-4.4c0-2.4,0-4.8,0-7.2c-1.1-0.1-2.1-0.1-3.1,0c0,2.4,0,4.8,0,7.2c0,1.8-1.6,3.3-3.4,3.3
			c-1.8,0.1-3.6-1.5-3.5-3.3c0-2.4,0-4.8,0-7.2C113,44,112,44,110.9,44.1z"/>
		<path class="st0" d="M138.4,38.6c-0.9,0-1.9,0-2.8,0c0,1.8,0,3.6,0,5.4c-1.3,0.1-2.7,0-4,0c-0.9,0-1.8,0-2.7,0.2
			c-1.1,0.3-2,1-2.7,1.9c-1.2,1.6-1.8,3.8-1.4,5.8c0.2,1.1,0.7,2.2,1.4,3.1c1.3,1.6,3.3,2.7,5.4,2.7c0.2,0,0.3,0,0.5,0
			c3.4-0.2,6.3-3.3,6.4-6.7C138.4,46.9,138.4,42.7,138.4,38.6z M134.6,53.2c-0.7,0.9-1.9,1.5-3,1.5c-0.9,0-1.9-0.3-2.6-1
			c-1.9-1.6-1.9-5.1,0.3-6.4c0.7-0.2,1.5-0.3,2.3-0.4c1.3-0.1,2.7,0.1,4,0.1C135.3,49.1,136.1,51.5,134.6,53.2z"/>
	</g>
</g>
</svg>
